<svg version="1.2" xmlns="http://www.w3.org/2000/svg" viewBox="0 0 100 100" width="100" height="100">
	<title>Novo Projeto (1)</title>
	<style>
		.s0 { fill: #fefefe } 
	</style>
	<path class="s0" d="m58 63.2c0 1.8 0 3.5-0.1 5.2 0 4.2-3.4 7.5-7.8 7.5-4.3 0-7.7-3.3-7.7-7.5q-0.1-18.2 0-36.3c0-4.4 3.4-7.7 7.8-7.7 4.3 0 7.7 3.3 7.7 7.7 0.1 10.3 0.1 20.7 0.1 31.1z"/>
	<path class="s0" d="m27.6 49.7c0-4.6 0-9.2 0-13.7 0.1-3.7 2.7-6.5 6.2-6.6 3.6 0 6.5 2.7 6.5 6.4q0.1 14.6 0 29.1c0 3.5-3 6.2-6.4 6.2-3.4 0-6.2-2.7-6.2-6.3-0.1-5-0.1-9.9-0.1-15.1z"/>
	<path class="s0" d="m60.7 32.2c2-2.6 4.7-3.4 7.5-2.5 2.6 0.9 4.2 3.3 4.2 6.4q0 14.1 0 28.1c-0.1 4-2.7 6.8-6.4 6.8-3.6 0-6.3-2.8-6.3-6.8 0-9.4 0-18.7 0-28.1 0.1-1.3 0.6-2.5 1-3.9z"/>
	<path class="s0" d="m22 63.8c-2.8-0.2-4.3-1.7-4.3-4.4q-0.1-9.2 0-18.4c0-2.5 1.7-4.3 4.1-4.3 2.4 0 4.1 1.8 4.1 4.3q0 9.2 0 18.5c0 2.4-1.3 3.8-3.9 4.3z"/>
	<path class="s0" d="m82.6 46.2c0 4.4 0.1 8.7 0 13.1 0 2.7-1.6 4.5-4 4.6-2.5 0-4.2-1.8-4.2-4.6q0-8.9 0-17.8c0-2.9 1.7-4.7 4.1-4.7 2.5 0 4.1 1.8 4.1 4.7 0.1 1.5 0 3 0 4.7z"/>
</svg>